<svg width="800" height="600" viewBox="0 0 800 600" fill="none" xmlns="http://www.w3.org/2000/svg">
  <defs>
    <linearGradient id="musicbg" x1="0" y1="0" x2="800" y2="600" gradientUnits="userSpaceOnUse">
      <stop stop-color="#1F2937"/>
      <stop offset="0.5" stop-color="#7C3AED"/>
      <stop offset="1" stop-color="#EC4899"/>
    </linearGradient>
  </defs>
  <rect width="800" height="600" rx="32" fill="url(#musicbg)"/>
  <circle cx="600" cy="130" r="90" fill="#F9A8D4" fill-opacity="0.18"/>
  <circle cx="180" cy="460" r="110" fill="#C4B5FD" fill-opacity="0.14"/>
  <rect x="160" y="150" width="480" height="260" rx="28" fill="rgba(255,255,255,0.08)" stroke="rgba(255,255,255,0.28)"/>
  <g>
    <circle cx="260" cy="320" r="52" fill="#FDF2F8" fill-opacity="0.25"/>
    <circle cx="260" cy="320" r="18" fill="#F5F3FF"/>
    <path d="M320 200V320C320 335.464 307.464 348 292 348H280V200H320Z" fill="#F5F3FF"/>
    <path d="M480 220V340C480 355.464 467.464 368 452 368H440V220H480Z" fill="#F5F3FF"/>
    <circle cx="470" cy="345" r="52" fill="#FDF2F8" fill-opacity="0.25"/>
    <circle cx="470" cy="345" r="18" fill="#F5F3FF"/>
  </g>
  <text x="400" y="245" text-anchor="middle" font-family="Arial, sans-serif" font-size="30" font-weight="700" fill="#F5F3FF">Music App</text>
  <text x="400" y="435" text-anchor="middle" font-family="Arial, sans-serif" font-size="20" fill="#E9D5FF">Now Playing</text>
</svg>
