<svg xmlns="http://www.w3.org/2000/svg" viewBox="0 0 841.9 595.3">
  <g fill="#61DAFB">
    <path d="m420.9 282.9c-25.5 0-46.2-20.7-46.2-46.2s20.7-46.2 46.2-46.2 46.2 20.7 46.2 46.2-20.7 46.2-46.2 46.2zm0-72.6c-13.4 0-24.2 10.8-24.2 24.2s10.8 24.2 24.2 24.2 24.2-10.8 24.2-24.2-10.8-24.2-24.2-24.2z"/>
    <path d="m420.9 352.7c-25.5 0-46.2-20.7-46.2-46.2s20.7-46.2 46.2-46.2 46.2 20.7 46.2 46.2-20.7 46.2-46.2 46.2zm0-72.6c-13.4 0-24.2 10.8-24.2 24.2s10.8 24.2 24.2 24.2 24.2-10.8 24.2-24.2-10.8-24.2-24.2-24.2z"/>
  </g>
</svg>